STARTFONT 2.1
COMMENT $XConsortium: lubR14.bdf,v 1.9 94/04/02 16:25:19 gildea Exp $
COMMENT  (c) Copyright Bigelow & Holmes 1986, 1985. Lucida is a registered
COMMENT  trademark of Bigelow & Holmes. See LEGAL NOTICE file for terms 
COMMENT  of the license. 
COMMENT  
COMMENT  Translation to ISO8859-2 by Cub Soft;  Petr.Kolar@vslib.cz
COMMENT  
FONT -B&H-LucidaBright-Medium-R-Normal--20-140-100-100-P-114-ISO8859-2
SIZE 14 100 100
FONTBOUNDINGBOX 32 23 -12 -4
STARTPROPERTIES 20
COMMENT Begin LogicalFontDescription
FONTNAME_REGISTRY ""
FOUNDRY "B&H"
FAMILY_NAME "LucidaBright"
WEIGHT_NAME "Medium"
SLANT "R"
SETWIDTH_NAME "Normal"
ADD_STYLE_NAME ""
PIXEL_SIZE 20
POINT_SIZE 140
RESOLUTION_X 100
RESOLUTION_Y 100
SPACING "P"
AVERAGE_WIDTH 114
CHARSET_REGISTRY "ISO8859"
CHARSET_ENCODING "2"
COMMENT END LogicalFontDescription
FONT_ASCENT 18
FONT_DESCENT 5
DEFAULT_CHAR 0
COPYRIGHT "Copyright Bigelow & Holmes 1986, 1985., Copyright 1996 Cub Soft"
FACE_NAME "Lucida Bright"
ENDPROPERTIES
CHARS 191
STARTCHAR space
ENCODING 32
SWIDTH 333 0
DWIDTH 6 0
BBX 1 1 0 0
BITMAP
00
ENDCHAR
STARTCHAR exclam
ENCODING 33
SWIDTH 265 0
DWIDTH 5 0
BBX 2 15 2 0
BITMAP
c0
c0
c0
c0
c0
c0
c0
80
80
80
80
00
00
c0
c0
ENDCHAR
STARTCHAR quotedbl
ENCODING 34
SWIDTH 386 0
DWIDTH 8 0
BBX 6 5 1 10
BITMAP
cc
cc
cc
48
48
ENDCHAR
STARTCHAR numbersign
ENCODING 35
SWIDTH 608 0
DWIDTH 12 0
BBX 12 15 0 0
BITMAP
0440
0440
0440
0480
0880
7ff0
0880
0900
0900
1100
ffe0
1100
1200
2200
2200
ENDCHAR
STARTCHAR dollar
ENCODING 36
SWIDTH 608 0
DWIDTH 12 0
BBX 7 18 3 -2
BITMAP
10
3e
d2
d2
d0
d0
f0
70
38
1c
16
16
96
96
dc
78
10
10
ENDCHAR
STARTCHAR percent
ENCODING 37
SWIDTH 675 0
DWIDTH 13 0
BBX 13 15 0 0
BITMAP
7818
c410
8420
8440
8480
8580
7900
02f0
0490
0d08
0908
1108
2108
4090
c0f0
ENDCHAR
STARTCHAR ampersand
ENCODING 38
SWIDTH 690 0
DWIDTH 14 0
BBX 14 15 0 0
BITMAP
0780
1cc0
18c0
18c0
18c0
0f80
1c00
663c
4708
c388
c1c8
c0d0
e0f0
70f0
1f3c
ENDCHAR
STARTCHAR apostrophe
ENCODING 39
SWIDTH 265 0
DWIDTH 5 0
BBX 2 6 2 9
BITMAP
c0
c0
40
40
c0
80
ENDCHAR
STARTCHAR parenleft
ENCODING 40
SWIDTH 316 0
DWIDTH 6 0
BBX 5 18 1 -3
BITMAP
08
10
20
20
60
40
c0
c0
c0
c0
c0
c0
40
60
20
20
10
08
ENDCHAR
STARTCHAR parenright
ENCODING 41
SWIDTH 316 0
DWIDTH 6 0
BBX 5 18 1 -3
BITMAP
80
40
20
20
30
10
18
18
18
18
18
18
10
30
20
20
40
80
ENDCHAR
STARTCHAR asterisk
ENCODING 42
SWIDTH 470 0
DWIDTH 9 0
BBX 8 7 1 8
BITMAP
18
18
d3
24
18
64
26
ENDCHAR
STARTCHAR plus
ENCODING 43
SWIDTH 608 0
DWIDTH 12 0
BBX 11 13 1 0
BITMAP
0400
0400
0400
0400
0400
0400
ffe0
0400
0400
0400
0400
0400
0400
ENDCHAR
STARTCHAR comma
ENCODING 44
SWIDTH 265 0
DWIDTH 5 0
BBX 2 7 2 -4
BITMAP
c0
c0
c0
40
40
40
80
ENDCHAR
STARTCHAR minus
ENCODING 45
SWIDTH 608 0
DWIDTH 12 0
BBX 12 1 0 6
BITMAP
fff0
ENDCHAR
STARTCHAR period
ENCODING 46
SWIDTH 265 0
DWIDTH 5 0
BBX 2 2 2 0
BITMAP
c0
c0
ENDCHAR
STARTCHAR slash
ENCODING 47
SWIDTH 512 0
DWIDTH 10 0
BBX 10 18 0 -3
BITMAP
0040
0080
0080
0100
0100
0200
0200
0400
0400
0800
0800
1000
1000
2000
2000
4000
4000
8000
ENDCHAR
STARTCHAR zero
ENCODING 48
SWIDTH 608 0
DWIDTH 12 0
BBX 10 15 1 0
BITMAP
1e00
2100
6180
4080
c0c0
c0c0
c0c0
c0c0
c0c0
c0c0
c0c0
4080
6180
2100
1e00
ENDCHAR
STARTCHAR one
ENCODING 49
SWIDTH 608 0
DWIDTH 12 0
BBX 8 15 2 0
BITMAP
f8
18
18
18
18
18
18
18
18
18
18
18
18
18
ff
ENDCHAR
STARTCHAR two
ENCODING 50
SWIDTH 608 0
DWIDTH 12 0
BBX 8 15 2 0
BITMAP
7c
c6
83
83
03
03
06
0c
08
30
20
40
40
ff
ff
ENDCHAR
STARTCHAR three
ENCODING 51
SWIDTH 608 0
DWIDTH 12 0
BBX 8 15 2 0
BITMAP
fc
86
83
03
03
02
04
7c
06
03
03
03
83
c6
fc
ENDCHAR
STARTCHAR four
ENCODING 52
SWIDTH 608 0
DWIDTH 12 0
BBX 11 15 0 0
BITMAP
0180
0380
0780
0580
0980
1180
2180
6180
c180
ffe0
0180
0180
0180
0180
07e0
ENDCHAR
STARTCHAR five
ENCODING 53
SWIDTH 608 0
DWIDTH 12 0
BBX 8 15 2 0
BITMAP
ff
ff
80
80
80
80
f8
0e
07
03
03
03
87
86
f8
ENDCHAR
STARTCHAR six
ENCODING 54
SWIDTH 608 0
DWIDTH 12 0
BBX 10 15 1 0
BITMAP
1f80
3180
6080
4000
c000
df00
e180
c0c0
c0c0
c0c0
c0c0
40c0
6180
3180
1e00
ENDCHAR
STARTCHAR seven
ENCODING 55
SWIDTH 608 0
DWIDTH 12 0
BBX 9 15 2 0
BITMAP
ff80
ff80
0180
0100
0200
0600
0400
0800
1800
1000
3000
3000
2000
6000
6000
ENDCHAR
STARTCHAR eight
ENCODING 56
SWIDTH 608 0
DWIDTH 12 0
BBX 10 15 1 0
BITMAP
1f00
3180
60c0
60c0
60c0
3980
1e00
2f00
4380
c1c0
c0c0
c0c0
c0c0
6180
3f00
ENDCHAR
STARTCHAR nine
ENCODING 57
SWIDTH 608 0
DWIDTH 12 0
BBX 10 15 1 0
BITMAP
1e00
6300
6180
c080
c0c0
c0c0
c0c0
c0c0
61c0
3ec0
00c0
0080
4180
6300
7e00
ENDCHAR
STARTCHAR colon
ENCODING 58
SWIDTH 265 0
DWIDTH 5 0
BBX 2 11 2 0
BITMAP
c0
c0
00
00
00
00
00
00
00
c0
c0
ENDCHAR
STARTCHAR semicolon
ENCODING 59
SWIDTH 265 0
DWIDTH 5 0
BBX 2 15 2 -4
BITMAP
c0
c0
00
00
00
00
00
00
00
c0
c0
40
40
40
80
ENDCHAR
STARTCHAR less
ENCODING 60
SWIDTH 608 0
DWIDTH 12 0
BBX 12 13 0 0
BITMAP
0010
0060
00c0
0300
0c00
3000
c000
3000
0c00
0300
00c0
0060
0010
ENDCHAR
STARTCHAR equal
ENCODING 61
SWIDTH 608 0
DWIDTH 12 0
BBX 12 6 0 3
BITMAP
fff0
0000
0000
0000
0000
fff0
ENDCHAR
STARTCHAR greater
ENCODING 62
SWIDTH 608 0
DWIDTH 12 0
BBX 12 13 0 0
BITMAP
8000
e000
3000
0c00
0300
00c0
0030
00c0
0300
0c00
3000
6000
8000
ENDCHAR
STARTCHAR question
ENCODING 63
SWIDTH 480 0
DWIDTH 10 0
BBX 8 15 1 0
BITMAP
7c
c6
83
83
03
06
0c
18
10
30
30
00
00
30
30
ENDCHAR
STARTCHAR at
ENCODING 64
SWIDTH 873 0
DWIDTH 17 0
BBX 16 15 1 0
BITMAP
03f0
0e0c
1806
21f2
6221
4421
8861
8861
88c3
88c2
8944
4678
6000
3040
0f80
ENDCHAR
STARTCHAR A
ENCODING 65
SWIDTH 744 0
DWIDTH 15 0
BBX 15 15 0 0
BITMAP
0100
0300
0380
0380
05c0
04c0
08e0
0860
1060
1ff0
1030
2018
2018
401c
f03e
ENDCHAR
STARTCHAR B
ENCODING 66
SWIDTH 609 0
DWIDTH 12 0
BBX 11 15 0 0
BITMAP
ff00
3180
30c0
30c0
30c0
3080
3100
3f80
31c0
30e0
3060
3060
3060
30c0
ff80
ENDCHAR
STARTCHAR C
ENCODING 67
SWIDTH 695 0
DWIDTH 14 0
BBX 12 15 1 0
BITMAP
0fe0
3830
7010
6010
c000
c000
c000
c000
c000
c000
c000
6000
3000
1810
0fe0
ENDCHAR
STARTCHAR D
ENCODING 68
SWIDTH 768 0
DWIDTH 15 0
BBX 14 15 0 0
BITMAP
ffc0
3070
3018
3018
300c
300c
300c
300c
300c
300c
3008
3018
3010
3070
ffc0
ENDCHAR
STARTCHAR E
ENCODING 69
SWIDTH 566 0
DWIDTH 11 0
BBX 11 15 0 0
BITMAP
ffc0
3040
3040
3000
3000
3000
3080
3f80
3080
3000
3000
3000
3020
3020
ffe0
ENDCHAR
STARTCHAR F
ENCODING 70
SWIDTH 548 0
DWIDTH 11 0
BBX 10 15 0 0
BITMAP
ffc0
3040
3040
3000
3000
3000
3080
3f80
3080
3000
3000
3000
3000
3000
fc00
ENDCHAR
STARTCHAR G
ENCODING 71
SWIDTH 732 0
DWIDTH 15 0
BBX 14 15 1 0
BITMAP
0fe0
3830
7010
6010
e000
c000
c000
c000
c0fc
c030
c030
6030
3030
1830
0fe0
ENDCHAR
STARTCHAR H
ENCODING 72
SWIDTH 771 0
DWIDTH 15 0
BBX 15 15 0 0
BITMAP
fc7e
3018
3018
3018
3018
3018
3018
3ff8
3018
3018
3018
3018
3018
3018
fc7e
ENDCHAR
STARTCHAR I
ENCODING 73
SWIDTH 325 0
DWIDTH 7 0
BBX 6 15 0 0
BITMAP
fc
30
30
30
30
30
30
30
30
30
30
30
30
30
fc
ENDCHAR
STARTCHAR J
ENCODING 74
SWIDTH 422 0
DWIDTH 8 0
BBX 8 18 0 -3
BITMAP
3f
0c
0c
0c
0c
0c
0c
0c
0c
0c
0c
0c
0c
0c
0c
8c
98
f0
ENDCHAR
STARTCHAR K
ENCODING 75
SWIDTH 708 0
DWIDTH 14 0
BBX 14 15 0 0
BITMAP
fcf8
3020
3040
3080
3100
3200
3400
3e00
3700
3300
3180
30c0
30e0
3070
fcfc
ENDCHAR
STARTCHAR L
ENCODING 76
SWIDTH 557 0
DWIDTH 11 0
BBX 11 15 0 0
BITMAP
fc00
3000
3000
3000
3000
3000
3000
3000
3000
3000
3000
3000
3020
3020
ffe0
ENDCHAR
STARTCHAR M
ENCODING 77
SWIDTH 860 0
DWIDTH 17 0
BBX 17 15 0 0
BITMAP
f00780
380e00
380e00
2c0e00
2c1600
2e1600
262600
262600
232600
234600
23c600
218600
218600
200600
f81f80
ENDCHAR
STARTCHAR N
ENCODING 78
SWIDTH 751 0
DWIDTH 15 0
BBX 15 15 0 0
BITMAP
f03e
3808
3808
3c08
2e08
2708
2308
2188
21c8
20e8
2068
2038
2038
2018
f808
ENDCHAR
STARTCHAR O
ENCODING 79
SWIDTH 777 0
DWIDTH 16 0
BBX 13 15 1 0
BITMAP
0f80
38e0
6030
6030
c018
c018
c018
c018
c018
c018
c018
6030
6030
38e0
0f80
ENDCHAR
STARTCHAR P
ENCODING 80
SWIDTH 573 0
DWIDTH 11 0
BBX 11 15 0 0
BITMAP
ff80
30c0
3060
3060
3060
3060
30e0
31c0
3f00
3000
3000
3000
3000
3000
fc00
ENDCHAR
STARTCHAR Q
ENCODING 81
SWIDTH 778 0
DWIDTH 16 0
BBX 17 18 1 -3
BITMAP
0fc000
387000
703800
601800
c00c00
c00c00
c00c00
c00c00
c00c00
c00c00
c00c00
601800
703800
387000
0fc000
006000
001e00
000780
ENDCHAR
STARTCHAR R
ENCODING 82
SWIDTH 679 0
DWIDTH 13 0
BBX 14 15 0 0
BITMAP
ff80
30c0
3060
3060
3060
3060
30c0
3f80
3300
3180
31c0
30c0
3060
3070
fc3c
ENDCHAR
STARTCHAR S
ENCODING 83
SWIDTH 542 0
DWIDTH 11 0
BBX 9 15 1 0
BITMAP
3e00
6300
c100
c100
c000
e000
7800
1e00
0700
0380
0180
8180
8180
c300
7e00
ENDCHAR
STARTCHAR T
ENCODING 84
SWIDTH 663 0
DWIDTH 13 0
BBX 12 15 1 0
BITMAP
fff0
8610
0600
0600
0600
0600
0600
0600
0600
0600
0600
0600
0600
0600
1f80
ENDCHAR
STARTCHAR U
ENCODING 85
SWIDTH 719 0
DWIDTH 14 0
BBX 14 15 0 0
BITMAP
fc7c
3010
3010
3010
3010
3010
3010
3010
3010
3010
3010
3010
3030
1860
0fc0
ENDCHAR
STARTCHAR V
ENCODING 86
SWIDTH 699 0
DWIDTH 14 0
BBX 14 15 0 0
BITMAP
f83c
7008
3010
3010
1810
1820
1c20
0c60
0c40
0640
0680
0780
0380
0300
0100
ENDCHAR
STARTCHAR W
ENCODING 87
SWIDTH 925 0
DWIDTH 18 0
BBX 18 15 0 0
BITMAP
f843c0
60c080
30c100
30e100
30e100
316200
197200
193200
1a3200
1a3400
0e1c00
0e1c00
0c1c00
0c0800
040800
ENDCHAR
STARTCHAR X
ENCODING 88
SWIDTH 657 0
DWIDTH 13 0
BBX 13 15 0 0
BITMAP
fc78
3030
3820
1840
0c80
0e80
0700
0700
0780
0980
19c0
10c0
2060
4070
f0f8
ENDCHAR
STARTCHAR Y
ENCODING 89
SWIDTH 678 0
DWIDTH 14 0
BBX 14 15 0 0
BITMAP
fc3c
7018
3810
1820
0c60
0e40
0680
0380
0300
0300
0300
0300
0300
0300
0fc0
ENDCHAR
STARTCHAR Z
ENCODING 90
SWIDTH 633 0
DWIDTH 13 0
BBX 10 15 1 0
BITMAP
ffc0
81c0
8180
0300
0700
0600
0e00
0c00
1800
1800
3000
7000
6040
c040
ffc0
ENDCHAR
STARTCHAR bracketleft
ENCODING 91
SWIDTH 316 0
DWIDTH 6 0
BBX 4 18 2 -3
BITMAP
f0
c0
c0
c0
c0
c0
c0
c0
c0
c0
c0
c0
c0
c0
c0
c0
c0
f0
ENDCHAR
STARTCHAR backslash
ENCODING 92
SWIDTH 512 0
DWIDTH 10 0
BBX 10 18 0 -3
BITMAP
8000
4000
4000
2000
2000
1000
1000
0800
0800
0400
0400
0200
0200
0100
0100
0080
0080
0040
ENDCHAR
STARTCHAR bracketright
ENCODING 93
SWIDTH 316 0
DWIDTH 6 0
BBX 4 18 1 -3
BITMAP
f0
30
30
30
30
30
30
30
30
30
30
30
30
30
30
30
30
f0
ENDCHAR
STARTCHAR asciicircum
ENCODING 94
SWIDTH 608 0
DWIDTH 12 0
BBX 12 13 0 2
BITMAP
0200
0600
0600
0f00
0900
0900
1080
1080
2040
2040
4020
4020
8010
ENDCHAR
STARTCHAR underscore
ENCODING 95
SWIDTH 500 0
DWIDTH 10 0
BBX 8 1 1 -2
BITMAP
ff
ENDCHAR
STARTCHAR grave
ENCODING 96
SWIDTH 602 0
DWIDTH 12 0
BBX 4 3 4 12
BITMAP
c0
20
10
ENDCHAR
STARTCHAR a
ENCODING 97
SWIDTH 543 0
DWIDTH 11 0
BBX 10 11 1 0
BITMAP
3e00
6700
4300
0300
0300
3f00
6300
c300
c300
e300
7dc0
ENDCHAR
STARTCHAR b
ENCODING 98
SWIDTH 611 0
DWIDTH 12 0
BBX 12 15 0 0
BITMAP
f000
3000
3000
3000
37c0
3860
3070
3030
3030
3030
3030
3030
3020
3860
2780
ENDCHAR
STARTCHAR c
ENCODING 99
SWIDTH 509 0
DWIDTH 10 0
BBX 8 11 1 0
BITMAP
1f
71
61
c0
c0
c0
c0
c0
60
70
1f
ENDCHAR
STARTCHAR d
ENCODING 100
SWIDTH 642 0
DWIDTH 13 0
BBX 12 15 1 0
BITMAP
03c0
00c0
00c0
00c0
1ec0
61c0
40c0
c0c0
c0c0
c0c0
c0c0
c0c0
e0c0
61c0
3ef0
ENDCHAR
STARTCHAR e
ENCODING 101
SWIDTH 530 0
DWIDTH 11 0
BBX 9 11 1 0
BITMAP
1e00
6300
6100
c180
c180
ff80
c000
c000
6000
7080
1f00
ENDCHAR
STARTCHAR f
ENCODING 102
SWIDTH 404 0
DWIDTH 8 0
BBX 8 16 0 0
BITMAP
1f
31
31
30
30
fe
30
30
30
30
30
30
30
30
30
fc
ENDCHAR
STARTCHAR g
ENCODING 103
SWIDTH 571 0
DWIDTH 11 0
BBX 11 15 0 -4
BITMAP
1fe0
3300
6180
6180
6180
6180
3300
1e00
6000
6000
3f80
c0c0
c0c0
e180
3f00
ENDCHAR
STARTCHAR h
ENCODING 104
SWIDTH 633 0
DWIDTH 13 0
BBX 13 15 0 0
BITMAP
f000
3000
3000
3000
33c0
3c60
3060
3060
3060
3060
3060
3060
3060
3060
fdf8
ENDCHAR
STARTCHAR i
ENCODING 105
SWIDTH 307 0
DWIDTH 6 0
BBX 6 15 0 0
BITMAP
30
30
00
00
f0
30
30
30
30
30
30
30
30
30
fc
ENDCHAR
STARTCHAR j
ENCODING 106
SWIDTH 346 0
DWIDTH 7 0
BBX 6 19 0 -4
BITMAP
0c
0c
00
00
3c
0c
0c
0c
0c
0c
0c
0c
0c
0c
0c
0c
8c
8c
f8
ENDCHAR
STARTCHAR k
ENCODING 107
SWIDTH 599 0
DWIDTH 12 0
BBX 12 15 0 0
BITMAP
f000
3000
3000
3000
31e0
30c0
3180
3200
3400
3e00
3700
3380
3180
30c0
fc70
ENDCHAR
STARTCHAR l
ENCODING 108
SWIDTH 313 0
DWIDTH 6 0
BBX 6 15 0 0
BITMAP
f0
30
30
30
30
30
30
30
30
30
30
30
30
30
fc
ENDCHAR
STARTCHAR m
ENCODING 109
SWIDTH 946 0
DWIDTH 19 0
BBX 18 11 1 0
BITMAP
f79e00
38e300
30c300
30c300
30c300
30c300
30c300
30c300
30c300
30c300
ffffc0
ENDCHAR
STARTCHAR n
ENCODING 110
SWIDTH 633 0
DWIDTH 13 0
BBX 13 11 0 0
BITMAP
f3c0
3c60
3060
3060
3060
3060
3060
3060
3060
3060
fdf8
ENDCHAR
STARTCHAR o
ENCODING 111
SWIDTH 602 0
DWIDTH 12 0
BBX 10 11 1 0
BITMAP
1e00
7380
6180
c0c0
c0c0
c0c0
c0c0
c0c0
6180
7380
1e00
ENDCHAR
STARTCHAR p
ENCODING 112
SWIDTH 642 0
DWIDTH 13 0
BBX 12 15 0 -4
BITMAP
f7c0
3860
3070
3030
3030
3030
3030
3030
3020
3860
3780
3000
3000
3000
fc00
ENDCHAR
STARTCHAR q
ENCODING 113
SWIDTH 617 0
DWIDTH 12 0
BBX 12 15 1 -4
BITMAP
1ec0
61c0
40c0
c0c0
c0c0
c0c0
c0c0
c0c0
e0c0
61c0
3ec0
00c0
00c0
00c0
03f0
ENDCHAR
STARTCHAR r
ENCODING 114
SWIDTH 440 0
DWIDTH 9 0
BBX 8 11 0 0
BITMAP
f7
3d
31
30
30
30
30
30
30
30
fc
ENDCHAR
STARTCHAR s
ENCODING 115
SWIDTH 504 0
DWIDTH 10 0
BBX 8 11 1 0
BITMAP
7c
e6
c2
c2
f0
7e
0f
83
83
c7
7c
ENDCHAR
STARTCHAR t
ENCODING 116
SWIDTH 392 0
DWIDTH 8 0
BBX 7 14 1 0
BITMAP
30
30
30
fe
30
30
30
30
30
30
30
30
30
1e
ENDCHAR
STARTCHAR u
ENCODING 117
SWIDTH 633 0
DWIDTH 13 0
BBX 13 11 0 0
BITMAP
f1e0
3060
3060
3060
3060
3060
3060
3060
3060
31e0
1e78
ENDCHAR
STARTCHAR v
ENCODING 118
SWIDTH 545 0
DWIDTH 11 0
BBX 11 11 0 0
BITMAP
f8e0
6040
7040
3080
3080
1900
1900
0f00
0e00
0e00
0400
ENDCHAR
STARTCHAR w
ENCODING 119
SWIDTH 795 0
DWIDTH 16 0
BBX 16 11 0 0
BITMAP
f887
6182
61c2
71c6
32e4
3264
3a68
1c38
1c38
1830
0810
ENDCHAR
STARTCHAR x
ENCODING 120
SWIDTH 557 0
DWIDTH 11 0
BBX 11 11 0 0
BITMAP
f9e0
70c0
3080
1900
1e00
0e00
0f00
1300
2180
41c0
e3e0
ENDCHAR
STARTCHAR y
ENCODING 121
SWIDTH 551 0
DWIDTH 11 0
BBX 11 15 0 -4
BITMAP
f8e0
6040
7040
3080
3080
1980
1900
0d00
0e00
0e00
0400
0400
0800
1800
3800
ENDCHAR
STARTCHAR z
ENCODING 122
SWIDTH 595 0
DWIDTH 12 0
BBX 9 11 1 0
BITMAP
ff80
8300
8700
0e00
0c00
1c00
3800
3000
6080
e080
ff80
ENDCHAR
STARTCHAR braceleft
ENCODING 123
SWIDTH 343 0
DWIDTH 7 0
BBX 5 18 1 -3
BITMAP
18
20
20
20
20
20
20
20
20
c0
20
20
20
20
20
20
20
18
ENDCHAR
STARTCHAR bar
ENCODING 124
SWIDTH 241 0
DWIDTH 5 0
BBX 1 18 2 -3
BITMAP
80
80
80
80
80
80
80
80
80
80
80
80
80
80
80
80
80
80
ENDCHAR
STARTCHAR braceright
ENCODING 125
SWIDTH 343 0
DWIDTH 7 0
BBX 5 18 1 -3
BITMAP
c0
20
20
20
60
40
40
40
20
38
60
40
40
60
20
20
20
c0
ENDCHAR
STARTCHAR asciitilde
ENCODING 126
SWIDTH 608 0
DWIDTH 12 0
BBX 12 4 0 4
BITMAP
7010
8c10
8310
81e0
ENDCHAR
STARTCHAR nobreakspace
ENCODING 160
SWIDTH 333 0
DWIDTH 6 0
BBX 1 1 0 0
BITMAP
00
ENDCHAR
STARTCHAR Aogonek
ENCODING 161
SWIDTH 744 0
DWIDTH 15 0
BBX 15 18 0 -3
BITMAP
0100
0300
0380
0380
05c0
04c0
08e0
0860
1060
1ff0
1030
2018
2018
401c
f03e
0100
0200
0380
ENDCHAR
STARTCHAR breve
ENCODING 162
SWIDTH 602 0
DWIDTH 12 0
BBX 7 3 3 12
BITMAP
82
7c
38
ENDCHAR
STARTCHAR Lstroke
ENCODING 163
SWIDTH 557 0
DWIDTH 11 0
BBX 11 15 0 0
BITMAP
fc00
3000
3000
3000
3000
3400
3c00
3000
f000
b000
3000
3000
3020
3020
ffe0
ENDCHAR
STARTCHAR currency
ENCODING 164
SWIDTH 608 0
DWIDTH 12 0
BBX 11 13 1 1
BITMAP
8020
4040
7fc0
3180
60c0
4040
4040
4040
60c0
3180
7fc0
4040
8020
ENDCHAR
STARTCHAR Lcaron
ENCODING 165
SWIDTH 557 0
DWIDTH 11 0
BBX 11 17 0 0
BITMAP
0180
0180
fc80
3080
3180
3100
3000
3000
3000
3000
3000
3000
3000
3000
3020
3020
ffe0
ENDCHAR
STARTCHAR Sacute
ENCODING 166
SWIDTH 542 0
DWIDTH 11 0
BBX 9 19 1 0
BITMAP
0600
0800
1000
0000
3e00
6300
c100
c100
c000
e000
7800
1e00
0700
0380
0180
8180
8180
c300
7e00
ENDCHAR
STARTCHAR section
ENCODING 167
SWIDTH 608 0
DWIDTH 12 0
BBX 9 19 2 -4
BITMAP
3f00
6300
c100
c000
c000
6000
3c00
5e00
c700
c100
e100
7900
3e00
0700
0380
0180
8180
c300
7e00
ENDCHAR
STARTCHAR diaeresis
ENCODING 168
SWIDTH 602 0
DWIDTH 12 0
BBX 6 2 3 13
BITMAP
cc
cc
ENDCHAR
STARTCHAR Scaron
ENCODING 169
SWIDTH 542 0
DWIDTH 11 0
BBX 9 19 1 0
BITMAP
c600
6c00
3800
0000
3e00
6300
c100
c100
c000
e000
7800
1e00
0700
0380
0180
8180
8180
c300
7e00
ENDCHAR
STARTCHAR Scedilla
ENCODING 170
SWIDTH 542 0
DWIDTH 11 0
BBX 9 20 1 -5
BITMAP
3e00
6300
c100
c100
c000
e000
7800
1e00
0700
0380
0180
8180
8180
c300
7e00
0800
1800
0400
0400
1800
ENDCHAR
STARTCHAR Tcaron
ENCODING 171
SWIDTH 663 0
DWIDTH 13 0
BBX 12 19 1 0
BITMAP
3180
1b00
0e00
0000
fff0
8610
0600
0600
0600
0600
0600
0600
0600
0600
0600
0600
0600
0600
1f80
ENDCHAR
STARTCHAR Zacute
ENCODING 172
SWIDTH 633 0
DWIDTH 13 0
BBX 10 19 1 0
BITMAP
0300
0400
0800
0000
ffc0
81c0
8180
0300
0700
0600
0e00
0c00
1800
1800
3000
7000
6040
c040
ffc0
ENDCHAR
STARTCHAR hyphen
ENCODING 173
SWIDTH 325 0
DWIDTH 7 0
BBX 5 1 1 7
BITMAP
f8
ENDCHAR
STARTCHAR Zcaron
ENCODING 174
SWIDTH 633 0
DWIDTH 13 0
BBX 10 19 1 0
BITMAP
6300
3600
1c00
0000
ffc0
81c0
8180
0300
0700
0600
0e00
0c00
1800
1800
3000
7000
6040
c040
ffc0
ENDCHAR
STARTCHAR Zabovedot
ENCODING 175
SWIDTH 633 0
DWIDTH 13 0
BBX 10 18 1 0
BITMAP
0c00
0c00
0000
ffc0
81c0
8180
0300
0700
0600
0e00
0c00
1800
1800
3000
7000
6040
c040
ffc0
ENDCHAR
STARTCHAR degree
ENCODING 176
SWIDTH 259 0
DWIDTH 5 0
BBX 3 4 1 11
BITMAP
40
a0
a0
40
ENDCHAR
STARTCHAR aogonek
ENCODING 177
SWIDTH 543 0
DWIDTH 11 0
BBX 10 14 1 -3
BITMAP
3e00
6700
4300
0300
0300
3f00
6300
c300
c300
e300
7dc0
0800
1000
1c00
ENDCHAR
STARTCHAR ogonek
ENCODING 178
SWIDTH 602 0
DWIDTH 12 0
BBX 3 3 5 -3
BITMAP
40
80
e0
ENDCHAR
STARTCHAR lstroke
ENCODING 179
SWIDTH 313 0
DWIDTH 6 0
BBX 6 15 0 0
BITMAP
f0
30
30
30
30
34
3c
30
f0
30
30
30
30
30
fc
ENDCHAR
STARTCHAR acute
ENCODING 180
SWIDTH 602 0
DWIDTH 12 0
BBX 4 3 4 12
BITMAP
30
40
80
ENDCHAR
STARTCHAR lcaron
ENCODING 181
SWIDTH 360 0
DWIDTH 7 0
BBX 7 17 0 0
BITMAP
06
06
f2
32
36
34
30
30
30
30
30
30
30
30
30
30
fc
ENDCHAR
STARTCHAR sacute
ENCODING 182
SWIDTH 504 0
DWIDTH 10 0
BBX 8 15 1 0
BITMAP
06
08
10
00
7c
e6
c2
c2
f0
7e
0f
83
83
c7
7c
ENDCHAR
STARTCHAR caron
ENCODING 183
SWIDTH 602 0
DWIDTH 12 0
BBX 7 3 3 12
BITMAP
c6
6c
38
ENDCHAR
STARTCHAR cedilla
ENCODING 184
SWIDTH 602 0
DWIDTH 12 0
BBX 3 5 5 -4
BITMAP
40
c0
20
20
c0
ENDCHAR
STARTCHAR scaron
ENCODING 185
SWIDTH 504 0
DWIDTH 10 0
BBX 8 15 1 0
BITMAP
c6
6c
38
00
7c
e6
c2
c2
f0
7e
0f
83
83
c7
7c
ENDCHAR
STARTCHAR scedilla
ENCODING 186
SWIDTH 504 0
DWIDTH 10 0
BBX 8 16 1 -5
BITMAP
7c
e6
c2
c2
f0
7e
0f
83
83
c7
7c
10
30
08
08
30
ENDCHAR
STARTCHAR tcaron
ENCODING 187
SWIDTH 392 0
DWIDTH 8 0
BBX 7 18 1 0
BITMAP
06
06
02
02
36
34
30
fe
30
30
30
30
30
30
30
30
30
1e
ENDCHAR
STARTCHAR zacute
ENCODING 188
SWIDTH 595 0
DWIDTH 12 0
BBX 9 15 1 0
BITMAP
0300
0400
0800
0000
ff80
8300
8700
0e00
0c00
1c00
3800
3000
6080
e080
ff80
ENDCHAR
STARTCHAR doubleacute
ENCODING 189
SWIDTH 602 0
DWIDTH 12 0
BBX 6 3 4 12
BITMAP
3c
50
b0
ENDCHAR
STARTCHAR zcaron
ENCODING 190
SWIDTH 595 0
DWIDTH 12 0
BBX 9 15 1 0
BITMAP
6300
3600
1c00
0000
ff80
8300
8700
0e00
0c00
1c00
3800
3000
6080
e080
ff80
ENDCHAR
STARTCHAR zabovedot
ENCODING 191
SWIDTH 595 0
DWIDTH 12 0
BBX 9 14 1 0
BITMAP
0c00
0c00
0000
ff80
8300
8700
0e00
0c00
1c00
3800
3000
6080
e080
ff80
ENDCHAR
STARTCHAR Racute
ENCODING 192
SWIDTH 679 0
DWIDTH 13 0
BBX 14 19 0 0
BITMAP
0180
0200
0400
0000
ff80
30c0
3060
3060
3060
3060
30c0
3f80
3300
3180
31c0
30c0
3060
3070
fc3c
ENDCHAR
STARTCHAR Aacute
ENCODING 193
SWIDTH 744 0
DWIDTH 15 0
BBX 15 19 0 0
BITMAP
00c0
0100
0200
0000
0100
0300
0380
0380
05c0
04c0
08e0
0860
1060
1ff0
1030
2018
2018
401c
f03e
ENDCHAR
STARTCHAR Acircumflex
ENCODING 194
SWIDTH 744 0
DWIDTH 15 0
BBX 15 19 0 0
BITMAP
0380
06c0
0c60
0000
0100
0300
0380
0380
05c0
04c0
08e0
0860
1060
1ff0
1030
2018
2018
401c
f03e
ENDCHAR
STARTCHAR Abreve
ENCODING 195
SWIDTH 744 0
DWIDTH 15 0
BBX 15 19 0 0
BITMAP
0820
07c0
0380
0000
0100
0300
0380
0380
05c0
04c0
08e0
0860
1060
1ff0
1030
2018
2018
401c
f03e
ENDCHAR
STARTCHAR Adiaeresis
ENCODING 196
SWIDTH 744 0
DWIDTH 15 0
BBX 15 18 0 0
BITMAP
0cc0
0cc0
0000
0100
0300
0380
0380
05c0
04c0
08e0
0860
1060
1ff0
1030
2018
2018
401c
f03e
ENDCHAR
STARTCHAR Lacute
ENCODING 197
SWIDTH 557 0
DWIDTH 11 0
BBX 11 19 0 0
BITMAP
0c00
1000
2000
0000
fc00
3000
3000
3000
3000
3000
3000
3000
3000
3000
3000
3000
3020
3020
ffe0
ENDCHAR
STARTCHAR Cacute
ENCODING 198
SWIDTH 695 0
DWIDTH 14 0
BBX 12 19 1 0
BITMAP
00c0
0100
0200
0000
0fe0
3830
7010
6010
c000
c000
c000
c000
c000
c000
c000
6000
3000
1810
0fe0
ENDCHAR
STARTCHAR Ccedilla
ENCODING 199
SWIDTH 695 0
DWIDTH 14 0
BBX 12 19 1 -4
BITMAP
0fe0
3830
7010
6010
c000
c000
c000
c000
c000
c000
c000
6000
3000
1810
0fe0
0200
0100
0100
0600
ENDCHAR
STARTCHAR Ccaron
ENCODING 200
SWIDTH 695 0
DWIDTH 14 0
BBX 12 19 1 0
BITMAP
18c0
0d80
0700
0000
0fe0
3830
7010
6010
c000
c000
c000
c000
c000
c000
c000
6000
3000
1810
0fe0
ENDCHAR
STARTCHAR Eacute
ENCODING 201
SWIDTH 566 0
DWIDTH 11 0
BBX 11 19 0 0
BITMAP
0300
0400
0800
0000
ffc0
3040
3040
3000
3000
3000
3080
3f80
3080
3000
3000
3000
3020
3020
ffe0
ENDCHAR
STARTCHAR Eogonek
ENCODING 202
SWIDTH 566 0
DWIDTH 11 0
BBX 11 18 0 -3
BITMAP
ffc0
3040
3040
3000
3000
3000
3080
3f80
3080
3000
3000
3000
3020
3020
ffe0
0400
0800
0e00
ENDCHAR
STARTCHAR Ediaeresis
ENCODING 203
SWIDTH 566 0
DWIDTH 11 0
BBX 11 18 0 0
BITMAP
1980
1980
0000
ffc0
3040
3040
3000
3000
3000
3080
3f80
3080
3000
3000
3000
3020
3020
ffe0
ENDCHAR
STARTCHAR Ecaron
ENCODING 204
SWIDTH 566 0
DWIDTH 11 0
BBX 11 19 0 0
BITMAP
6300
3600
1c00
0000
ffc0
3040
3040
3000
3000
3000
3080
3f80
3080
3000
3000
3000
3020
3020
ffe0
ENDCHAR
STARTCHAR Iacute
ENCODING 205
SWIDTH 325 0
DWIDTH 7 0
BBX 6 19 0 0
BITMAP
18
20
40
00
fc
30
30
30
30
30
30
30
30
30
30
30
30
30
fc
ENDCHAR
STARTCHAR Icircumflex
ENCODING 206
SWIDTH 325 0
DWIDTH 7 0
BBX 7 19 1 0
BITMAP
38
6c
c6
00
7e
18
18
18
18
18
18
18
18
18
18
18
18
18
7e
ENDCHAR
STARTCHAR Dcaron
ENCODING 207
SWIDTH 768 0
DWIDTH 15 0
BBX 14 19 0 0
BITMAP
18c0
0d80
0700
0000
ffc0
3070
3018
3018
300c
300c
300c
300c
300c
300c
3008
3018
3010
3070
ffc0
ENDCHAR
STARTCHAR Dstroke
ENCODING 208
SWIDTH 768 0
DWIDTH 15 0
BBX 14 15 0 0
BITMAP
ffc0
3070
3018
3018
300c
300c
300c
fe0c
300c
300c
3008
3018
3010
3070
ffc0
ENDCHAR
STARTCHAR Nacute
ENCODING 209
SWIDTH 751 0
DWIDTH 15 0
BBX 15 19 0 0
BITMAP
0060
0080
0100
0000
f03e
3808
3808
3c08
2e08
2708
2308
2188
21c8
20e8
2068
2038
2038
2018
f808
ENDCHAR
STARTCHAR Ncaron
ENCODING 210
SWIDTH 751 0
DWIDTH 15 0
BBX 15 19 0 0
BITMAP
0c60
06c0
0380
0000
f03e
3808
3808
3c08
2e08
2708
2308
2188
21c8
20e8
2068
2038
2038
2018
f808
ENDCHAR
STARTCHAR Oacute
ENCODING 211
SWIDTH 777 0
DWIDTH 16 0
BBX 13 19 1 0
BITMAP
0180
0200
0400
0000
0f80
38e0
6030
6030
c018
c018
c018
c018
c018
c018
c018
6030
6030
38e0
0f80
ENDCHAR
STARTCHAR Ocircumflex
ENCODING 212
SWIDTH 777 0
DWIDTH 16 0
BBX 13 19 1 0
BITMAP
0700
0d80
18c0
0000
0f80
38e0
6030
6030
c018
c018
c018
c018
c018
c018
c018
6030
6030
38e0
0f80
ENDCHAR
STARTCHAR Odoubleacute
ENCODING 213
SWIDTH 777 0
DWIDTH 16 0
BBX 13 19 1 0
BITMAP
01e0
0280
0580
0000
0f80
38e0
6030
6030
c018
c018
c018
c018
c018
c018
c018
6030
6030
38e0
0f80
ENDCHAR
STARTCHAR Odiaeresis
ENCODING 214
SWIDTH 777 0
DWIDTH 16 0
BBX 13 18 1 0
BITMAP
1980
1980
0000
0f80
38e0
6030
6030
c018
c018
c018
c018
c018
c018
c018
6030
6030
38e0
0f80
ENDCHAR
STARTCHAR multiply
ENCODING 215
SWIDTH 608 0
DWIDTH 12 0
BBX 12 13 0 0
BITMAP
8010
4020
2040
1080
1980
0f00
0600
0f00
0980
1080
2040
4020
8010
ENDCHAR
STARTCHAR Rcaron
ENCODING 216
SWIDTH 679 0
DWIDTH 13 0
BBX 14 19 0 0
BITMAP
3180
1b00
0e00
0000
ff80
30c0
3060
3060
3060
3060
30c0
3f80
3300
3180
31c0
30c0
3060
3070
fc3c
ENDCHAR
STARTCHAR Uring
ENCODING 217
SWIDTH 719 0
DWIDTH 14 0
BBX 14 19 0 0
BITMAP
0700
0500
0700
0000
fc7c
3010
3010
3010
3010
3010
3010
3010
3010
3010
3010
3010
3030
1860
0fc0
ENDCHAR
STARTCHAR Uacute
ENCODING 218
SWIDTH 719 0
DWIDTH 14 0
BBX 14 19 0 0
BITMAP
0180
0200
0400
0000
fc7c
3010
3010
3010
3010
3010
3010
3010
3010
3010
3010
3010
3030
1860
0fc0
ENDCHAR
STARTCHAR Udoubleacute
ENCODING 219
SWIDTH 719 0
DWIDTH 14 0
BBX 14 19 0 0
BITMAP
01e0
0280
0580
0000
fc7c
3010
3010
3010
3010
3010
3010
3010
3010
3010
3010
3010
3030
1860
0fc0
ENDCHAR
STARTCHAR Udiaeresis
ENCODING 220
SWIDTH 719 0
DWIDTH 14 0
BBX 14 18 0 0
BITMAP
0cc0
0cc0
0000
fc7c
3010
3010
3010
3010
3010
3010
3010
3010
3010
3010
3010
3030
1860
0fc0
ENDCHAR
STARTCHAR Yacute
ENCODING 221
SWIDTH 678 0
DWIDTH 14 0
BBX 14 19 0 0
BITMAP
0180
0200
0400
0000
fc3c
7018
3810
1820
0c60
0e40
0680
0380
0300
0300
0300
0300
0300
0300
0fc0
ENDCHAR
STARTCHAR Tcedilla
ENCODING 222
SWIDTH 663 0
DWIDTH 13 0
BBX 12 20 1 -5
BITMAP
fff0
8610
0600
0600
0600
0600
0600
0600
0600
0600
0600
0600
0600
0600
1f80
0400
0c00
0200
0200
0c00
ENDCHAR
STARTCHAR ssharp
ENCODING 223
SWIDTH 614 0
DWIDTH 12 0
BBX 11 16 0 0
BITMAP
1f00
1380
3180
3180
3100
3100
3200
3300
3380
31c0
30c0
3060
3020
3220
3260
fbc0
ENDCHAR
STARTCHAR racute
ENCODING 224
SWIDTH 440 0
DWIDTH 9 0
BBX 8 15 0 0
BITMAP
06
08
10
00
f7
3d
31
30
30
30
30
30
30
30
fc
ENDCHAR
STARTCHAR aacute
ENCODING 225
SWIDTH 543 0
DWIDTH 11 0
BBX 10 15 1 0
BITMAP
0600
0800
1000
0000
3e00
6700
4300
0300
0300
3f00
6300
c300
c300
e300
7dc0
ENDCHAR
STARTCHAR acircumflex
ENCODING 226
SWIDTH 543 0
DWIDTH 11 0
BBX 10 15 1 0
BITMAP
1c00
3600
6300
0000
3e00
6700
4300
0300
0300
3f00
6300
c300
c300
e300
7dc0
ENDCHAR
STARTCHAR abreve
ENCODING 227
SWIDTH 543 0
DWIDTH 11 0
BBX 10 15 1 0
BITMAP
4100
3e00
1c00
0000
3e00
6700
4300
0300
0300
3f00
6300
c300
c300
e300
7dc0
ENDCHAR
STARTCHAR adiaeresis
ENCODING 228
SWIDTH 543 0
DWIDTH 11 0
BBX 10 14 1 0
BITMAP
3300
3300
0000
3e00
6700
4300
0300
0300
3f00
6300
c300
c300
e300
7dc0
ENDCHAR
STARTCHAR lacute
ENCODING 229
SWIDTH 313 0
DWIDTH 6 0
BBX 6 19 0 0
BITMAP
18
20
40
00
f0
30
30
30
30
30
30
30
30
30
30
30
30
30
fc
ENDCHAR
STARTCHAR cacute
ENCODING 230
SWIDTH 509 0
DWIDTH 10 0
BBX 8 15 1 0
BITMAP
03
04
08
00
1f
71
61
c0
c0
c0
c0
c0
60
70
1f
ENDCHAR
STARTCHAR ccedilla
ENCODING 231
SWIDTH 509 0
DWIDTH 10 0
BBX 8 15 1 -4
BITMAP
1f
71
61
c0
c0
c0
c0
c0
60
70
1f
08
04
04
18
ENDCHAR
STARTCHAR ccaron
ENCODING 232
SWIDTH 509 0
DWIDTH 10 0
BBX 8 15 1 0
BITMAP
63
36
1c
00
1f
71
61
c0
c0
c0
c0
c0
60
70
1f
ENDCHAR
STARTCHAR eacute
ENCODING 233
SWIDTH 530 0
DWIDTH 11 0
BBX 9 15 1 0
BITMAP
0600
0800
1000
0000
1e00
6300
6100
c180
c180
ff80
c000
c000
6000
7080
1f00
ENDCHAR
STARTCHAR eogonek
ENCODING 234
SWIDTH 530 0
DWIDTH 11 0
BBX 9 14 1 -3
BITMAP
1e00
6300
6100
c180
c180
ff80
c000
c000
6000
7080
1f00
0800
1000
1c00
ENDCHAR
STARTCHAR ediaeresis
ENCODING 235
SWIDTH 530 0
DWIDTH 11 0
BBX 9 14 1 0
BITMAP
3300
3300
0000
1e00
6300
6100
c180
c180
ff80
c000
c000
6000
7080
1f00
ENDCHAR
STARTCHAR ecaron
ENCODING 236
SWIDTH 530 0
DWIDTH 11 0
BBX 9 15 1 0
BITMAP
6300
3600
1c00
0000
1e00
6300
6100
c180
c180
ff80
c000
c000
6000
7080
1f00
ENDCHAR
STARTCHAR iacute
ENCODING 237
SWIDTH 307 0
DWIDTH 6 0
BBX 6 15 0 0
BITMAP
18
20
40
00
f0
30
30
30
30
30
30
30
30
30
fc
ENDCHAR
STARTCHAR icircumflex
ENCODING 238
SWIDTH 307 0
DWIDTH 6 0
BBX 7 15 1 0
BITMAP
38
6c
c6
00
78
18
18
18
18
18
18
18
18
18
7e
ENDCHAR
STARTCHAR dcaron
ENCODING 239
SWIDTH 720 0
DWIDTH 14 0
BBX 13 17 1 0
BITMAP
0018
0018
03c8
00c8
00d8
00d0
1ec0
61c0
40c0
c0c0
c0c0
c0c0
c0c0
c0c0
e0c0
61c0
3ef0
ENDCHAR
STARTCHAR dstroke
ENCODING 240
SWIDTH 720 0
DWIDTH 14 0
BBX 13 15 1 0
BITMAP
03c0
00c0
07f8
00c0
1ec0
61c0
40c0
c0c0
c0c0
c0c0
c0c0
c0c0
e0c0
61c0
3ef0
ENDCHAR
STARTCHAR nacute
ENCODING 241
SWIDTH 633 0
DWIDTH 13 0
BBX 13 15 0 0
BITMAP
0180
0200
0400
0000
f3c0
3c60
3060
3060
3060
3060
3060
3060
3060
3060
fdf8
ENDCHAR
STARTCHAR ncaron
ENCODING 242
SWIDTH 633 0
DWIDTH 13 0
BBX 13 15 0 0
BITMAP
3180
1b00
0e00
0000
f3c0
3c60
3060
3060
3060
3060
3060
3060
3060
3060
fdf8
ENDCHAR
STARTCHAR oacute
ENCODING 243
SWIDTH 602 0
DWIDTH 12 0
BBX 10 15 1 0
BITMAP
0600
0800
1000
0000
1e00
7380
6180
c0c0
c0c0
c0c0
c0c0
c0c0
6180
7380
1e00
ENDCHAR
STARTCHAR ocircumflex
ENCODING 244
SWIDTH 602 0
DWIDTH 12 0
BBX 10 15 1 0
BITMAP
1c00
3600
6300
0000
1e00
7380
6180
c0c0
c0c0
c0c0
c0c0
c0c0
6180
7380
1e00
ENDCHAR
STARTCHAR odoubleacute
ENCODING 245
SWIDTH 602 0
DWIDTH 12 0
BBX 10 15 1 0
BITMAP
0780
0a00
1600
0000
1e00
7380
6180
c0c0
c0c0
c0c0
c0c0
c0c0
6180
7380
1e00
ENDCHAR
STARTCHAR odiaeresis
ENCODING 246
SWIDTH 602 0
DWIDTH 12 0
BBX 10 14 1 0
BITMAP
3300
3300
0000
1e00
7380
6180
c0c0
c0c0
c0c0
c0c0
c0c0
6180
7380
1e00
ENDCHAR
STARTCHAR division
ENCODING 247
SWIDTH 608 0
DWIDTH 12 0
BBX 12 11 0 0
BITMAP
0600
0600
0000
0000
0000
fff0
0000
0000
0000
0600
0600
ENDCHAR
STARTCHAR rcaron
ENCODING 248
SWIDTH 440 0
DWIDTH 9 0
BBX 8 15 0 0
BITMAP
c6
6c
38
00
f7
3d
31
30
30
30
30
30
30
30
fc
ENDCHAR
STARTCHAR uring
ENCODING 249
SWIDTH 633 0
DWIDTH 13 0
BBX 13 15 0 0
BITMAP
0e00
0a00
0e00
0000
f1e0
3060
3060
3060
3060
3060
3060
3060
3060
31e0
1e78
ENDCHAR
STARTCHAR uacute
ENCODING 250
SWIDTH 633 0
DWIDTH 13 0
BBX 13 15 0 0
BITMAP
0180
0200
0400
0000
f1e0
3060
3060
3060
3060
3060
3060
3060
3060
31e0
1e78
ENDCHAR
STARTCHAR udoubleacute
ENCODING 251
SWIDTH 633 0
DWIDTH 13 0
BBX 13 15 0 0
BITMAP
03c0
0500
0b00
0000
f1e0
3060
3060
3060
3060
3060
3060
3060
3060
31e0
1e78
ENDCHAR
STARTCHAR udiaeresis
ENCODING 252
SWIDTH 633 0
DWIDTH 13 0
BBX 13 14 0 0
BITMAP
0cc0
0cc0
0000
f1e0
3060
3060
3060
3060
3060
3060
3060
3060
31e0
1e78
ENDCHAR
STARTCHAR yacute
ENCODING 253
SWIDTH 551 0
DWIDTH 11 0
BBX 11 19 0 -4
BITMAP
0300
0400
0800
0000
f8e0
6040
7040
3080
3080
1980
1900
0d00
0e00
0e00
0400
0400
0800
1800
3800
ENDCHAR
STARTCHAR tcedilla
ENCODING 254
SWIDTH 392 0
DWIDTH 8 0
BBX 7 19 1 -5
BITMAP
30
30
30
fe
30
30
30
30
30
30
30
30
30
1e
10
30
08
08
30
ENDCHAR
STARTCHAR abovedot
ENCODING 255
SWIDTH 602 0
DWIDTH 12 0
BBX 2 2 5 13
BITMAP
c0
c0
ENDCHAR
ENDFONT
